<svg xmlns="http://www.w3.org/2000/svg" width="22.023" height="22.001" viewBox="0 0 22.023 22.001">
  <path id="설정아이콘" d="M27.861,5.9a.471.471,0,0,1-.288.153l-2.066-.02a1.288,1.288,0,0,0-1.169.828s-.091.259-.191.655-.142.667-.142.667a1.289,1.289,0,0,0,.648,1.289l1.822.955a.483.483,0,0,1,.184.3l.1.7a.473.473,0,0,1-.093.311L25.2,13.185a1.263,1.263,0,0,0-.211,1.458l.665,1.11a1.284,1.284,0,0,0,1.367.475l2.025-.619a.48.48,0,0,1,.282.092l.572.422a.477.477,0,0,1,.153.288l-.02,2.056a1.286,1.286,0,0,0,.828,1.18s.259.091.655.191.667.142.667.142c.029,0,.144.013.173.013a1.3,1.3,0,0,0,1.116-.662l.955-1.822a.483.483,0,0,1,.3-.184l.736-.107a.485.485,0,0,1,.279.1l1.439,1.468a1.234,1.234,0,0,0,1.458.211l1.109-.665a1.257,1.257,0,0,0,.476-1.367L39.615,15a.48.48,0,0,1,.087-.345l.422-.572a.471.471,0,0,1,.288-.153l2.066.02a1.288,1.288,0,0,0,1.169-.828s.091-.259.191-.655.142-.667.142-.667a1.289,1.289,0,0,0-.648-1.289l-1.822-.955a.483.483,0,0,1-.184-.3l-.1-.7a.473.473,0,0,1,.093-.311L42.784,6.8a1.263,1.263,0,0,0,.211-1.458l-.665-1.11a1.286,1.286,0,0,0-1.367-.476l-2.026.619a.48.48,0,0,1-.282-.092l-.572-.422a.477.477,0,0,1-.153-.288l.02-2.056a1.286,1.286,0,0,0-.828-1.18s-.259-.091-.655-.191S35.8,0,35.8,0c-.029,0-.144-.012-.173-.012a1.3,1.3,0,0,0-1.116.662l-.955,1.822a.483.483,0,0,1-.3.184l-.736.105a.485.485,0,0,1-.279-.1L30.8,1.2A1.235,1.235,0,0,0,29.342.991l-1.11.664a1.257,1.257,0,0,0-.476,1.367l.613,1.962a.48.48,0,0,1-.087.345l-.421.572Zm6.131,7.423a3.335,3.335,0,0,0,3.33-3.33,3.516,3.516,0,0,0-.908-2.283,3.158,3.158,0,0,0-2.422-1.047,3.33,3.33,0,1,0,0,6.661Z" transform="translate(-22.981 1.008)" fill="none" stroke="#868e96" stroke-width="2"/>
</svg>
