<svg xmlns="http://www.w3.org/2000/svg" xmlns:xlink="http://www.w3.org/1999/xlink" width="44.75" height="20.5" viewBox="0 0 44.75 20.5">
  <defs>
    <clipPath id="clip-path">
      <rect id="사각형_1654" data-name="사각형 1654" width="20" height="20" fill="#fff" stroke="#495057" stroke-width="1.5"/>
    </clipPath>
  </defs>
  <g id="생체인증_아이콘" data-name="생체인증 아이콘" transform="translate(0 0.143)">
    <g id="touch">
      <g id="그룹_3732" data-name="그룹 3732" transform="translate(0 0)" clip-path="url(#clip-path)">
        <path id="패스_6169" data-name="패스 6169" d="M18.624,16.194a6.318,6.318,0,0,0,.521-1.867c.1-.886.2-1.772.24-2.665.024-.51.047-1.018.035-1.527A9.375,9.375,0,0,0,17.57,4.659a8.894,8.894,0,0,0-4.1-3.105,8.614,8.614,0,0,0-2.438-.53A8.5,8.5,0,0,0,5.953,2.239,9.089,9.089,0,0,0,1.826,7.59a13.372,13.372,0,0,0-.4,2.835A12.933,12.933,0,0,1,1,13.161" transform="translate(-0.21 -0.191)" fill="none" stroke="#495057" stroke-linecap="round" stroke-linejoin="round" stroke-width="1.5"/>
        <path id="패스_6170" data-name="패스 6170" d="M15.788,22.267a22.55,22.55,0,0,0,1.29-4.508,23.3,23.3,0,0,0,.307-2.666,9.373,9.373,0,0,0,.013-1.647,2.985,2.985,0,0,0-5.951.071c-.019.212-.009.192-.02.4" transform="translate(-4.213 -3.721)" fill="none" stroke="#495057" stroke-linecap="round" stroke-linejoin="round" stroke-width="1.5"/>
        <path id="패스_6171" data-name="패스 6171" d="M21.725,15.481c.091-1.1.091-1.1.121-1.647a10.628,10.628,0,0,0-.142-3.369,6.214,6.214,0,0,0-1.247-2.445A5.868,5.868,0,0,0,17.67,6.133a6.137,6.137,0,0,0-3.029-.159" transform="translate(-5.701 -1.951)" fill="none" stroke="#495057" stroke-linecap="round" stroke-linejoin="round" stroke-width="1.5"/>
        <path id="패스_6172" data-name="패스 6172" d="M7.858,8.307a6,6,0,0,0-1.783,2.83A5.416,5.416,0,0,0,5.82,12.76a12.828,12.828,0,0,1-1.2,5.6" transform="translate(-1.598 -2.841)" fill="none" stroke="#495057" stroke-linecap="round" stroke-linejoin="round" stroke-width="1.5"/>
        <path id="패스_6173" data-name="패스 6173" d="M14.935,15.1a19.606,19.606,0,0,1-.258,3.441A18.625,18.625,0,0,1,13.2,23.391c-.142.31-.285.621-.449.918" transform="translate(-4.721 -5.306)" fill="none" stroke="#495057" stroke-linecap="round" stroke-linejoin="round" stroke-width="1.5"/>
        <path id="패스_6174" data-name="패스 6174" d="M10.022,20.085a10.348,10.348,0,0,1-.307,1.526,20.159,20.159,0,0,1-1.706,3.753" transform="translate(-3.112 -7.113)" fill="none" stroke="#495057" stroke-linecap="round" stroke-linejoin="round" stroke-width="1.5"/>
        <path id="패스_6175" data-name="패스 6175" d="M24.439,24.841a20.931,20.931,0,0,1-.957,3.188" transform="translate(-8.839 -8.838)" fill="none" stroke="#495057" stroke-linecap="round" stroke-linejoin="round" stroke-width="1.5"/>
      </g>
    </g>
    <g id="face" transform="translate(25 0.607)">
      <g id="그룹_3734" data-name="그룹 3734" transform="translate(5.115 6.284)">
        <line id="선_210" data-name="선 210" y2="1.462" transform="translate(8.672)" fill="none" stroke="#495057" stroke-linecap="round" stroke-width="1.5"/>
        <line id="선_211" data-name="선 211" y2="1.462" fill="none" stroke="#495057" stroke-linecap="round" stroke-width="1.5"/>
        <path id="패스_6167" data-name="패스 6167" d="M-6382.809-2200.833h0v3.35c0,1.038.658,1.035,1.462,1.035" transform="translate(6386.853 2200.833)" fill="none" stroke="#495057" stroke-linecap="round" stroke-width="1.5"/>
        <path id="패스_6168" data-name="패스 6168" d="M-8155.463-2027.161a5.376,5.376,0,0,0,7.308,0" transform="translate(8156.201 2033.884)" fill="none" stroke="#495057" stroke-linecap="round" stroke-width="1.5"/>
      </g>
      <g id="그룹_3736" data-name="그룹 3736" transform="translate(0 0)">
        <path id="패스_6176" data-name="패스 6176" d="M.5,6.346V4.413A3.913,3.913,0,0,1,4.413.5H6.346" transform="translate(-0.5 -0.5)" fill="none" stroke="#495057" stroke-linecap="round" stroke-width="1.5"/>
        <path id="패스_6177" data-name="패스 6177" d="M6.346,6.346V4.413A3.913,3.913,0,0,0,2.433.5H.5" transform="translate(12.654 -0.5)" fill="none" stroke="#495057" stroke-linecap="round" stroke-width="1.5"/>
        <path id="패스_6178" data-name="패스 6178" d="M.5.5V2.433A3.913,3.913,0,0,0,4.413,6.346H6.346" transform="translate(-0.5 12.653)" fill="none" stroke="#495057" stroke-linecap="round" stroke-width="1.5"/>
        <path id="패스_6179" data-name="패스 6179" d="M6.346.5V2.433A3.913,3.913,0,0,1,2.433,6.346H.5" transform="translate(12.654 12.653)" fill="none" stroke="#495057" stroke-linecap="round" stroke-width="1.5"/>
      </g>
    </g>
  </g>
</svg>
