<svg xmlns="http://www.w3.org/2000/svg" width="18" height="20" viewBox="0 0 18 20">
  <g id="내역_아이콘_white" data-name="내역 아이콘_white" transform="translate(-148 -156)">
    <g id="사각형_145" data-name="사각형 145" transform="translate(148 156)" fill="none" stroke="#fff" stroke-width="2">
      <path d="M0,0H18a0,0,0,0,1,0,0V14a6,6,0,0,1-6,6H0a0,0,0,0,1,0,0V0A0,0,0,0,1,0,0Z" stroke="none"/>
      <path d="M2,1H16a1,1,0,0,1,1,1V14a5,5,0,0,1-5,5H2a1,1,0,0,1-1-1V2A1,1,0,0,1,2,1Z" fill="none"/>
    </g>
    <line id="선_106" data-name="선 106" x2="7" transform="translate(153.5 163.5)" fill="none" stroke="#fff" stroke-width="2"/>
    <line id="선_108" data-name="선 108" x2="7" transform="translate(153.5 168)" fill="none" stroke="#fff" stroke-width="2"/>
  </g>
</svg>
