<svg id="logo" xmlns="http://www.w3.org/2000/svg" width="116.355" height="36" viewBox="0 0 116.355 36">
  <g id="그룹_2488" data-name="그룹 2488">
    <g id="그룹_2487" data-name="그룹 2487" transform="translate(3.286)">
      <g id="그룹_2486" data-name="그룹 2486">
        <path id="패스_2062" data-name="패스 2062" d="M287.351,727.114a2.34,2.34,0,0,0-1.309-.358,2.874,2.874,0,0,0-.566.052L268.5,732.014v4.641a7.724,7.724,0,0,1,6.177,1.933c1.635,1.6,6.325,9.465,8.235,13.358a1.732,1.732,0,0,1,.12,1.087.953.953,0,0,1-.7.748,1.769,1.769,0,0,1-1.123-.217l-4.535-2.917c-3.205,5.968-8.483,3.481-8.483,3.481V758.8s14.332,3.951,16.817,3.951c3.08,0,3.2-2.007,3.205-2.165V729.053A2.363,2.363,0,0,0,287.351,727.114Zm-3.565,9.558.9,4.567a.49.49,0,0,1-.47.592h-3.032a.49.49,0,0,1-.47-.592l.9-4.567a2.883,2.883,0,0,1-1.707-2.654,2.8,2.8,0,1,1,5.589,0A2.883,2.883,0,0,1,283.786,736.672Z" transform="translate(-268.19 -726.756)" fill="#fff"/>
      </g>
    </g>
    <path id="패스_2063" data-name="패스 2063" d="M256.929,812.2c.656-.835,1.011-1.952.651-4.008a3.967,3.967,0,0,0-2.365-3.247,3.471,3.471,0,0,0-1.2-.2,4.412,4.412,0,0,0-2.436.711,5.179,5.179,0,0,0-1.184,6.994C251.759,814.446,255.188,814.419,256.929,812.2Z" transform="translate(-249.529 -790.448)" fill="#fff"/>
  </g>
  <g id="그룹_2489" data-name="그룹 2489" transform="translate(29.574 15.54)">
    <path id="패스_2064" data-name="패스 2064" d="M401.857,812.773h1.953L407.7,822.89h-2l-.792-2.084H400.78l-.823,2.084h-2Zm.989,2.682-1.357,3.473H404.2Z" transform="translate(-397.956 -812.518)" fill="#fff"/>
    <path id="패스_2065" data-name="패스 2065" d="M460.965,812.773h1.926v8.28H465.7v1.836h-4.732Z" transform="translate(-449.871 -812.518)" fill="#fff"/>
    <path id="패스_2066" data-name="패스 2066" d="M496,826.64a3.966,3.966,0,0,1,1.991.53,3.882,3.882,0,0,1,1.977,3.4,3.93,3.93,0,0,1-.526,1.981,3.8,3.8,0,0,1-1.434,1.441,3.961,3.961,0,0,1-2,.519,3.732,3.732,0,0,1-2.747-1.145,3.966,3.966,0,0,1,.148-5.7A3.757,3.757,0,0,1,496,826.64Zm.031,1.767a1.932,1.932,0,0,0-1.457.609,2.162,2.162,0,0,0-.582,1.558,2.2,2.2,0,0,0,.575,1.582,1.923,1.923,0,0,0,1.457.605,1.946,1.946,0,0,0,1.467-.612,2.413,2.413,0,0,0,.01-3.14A1.946,1.946,0,0,0,496.028,828.407Z" transform="translate(-475.539 -823.944)" fill="#fff"/>
    <path id="패스_2067" data-name="패스 2067" d="M550.218,828.346l-1.563.86a2.656,2.656,0,0,0-.871-.64,2.621,2.621,0,0,0-1.009-.179,2.35,2.35,0,0,0-1.7.628,2.141,2.141,0,0,0-.651,1.61,2.069,2.069,0,0,0,.627,1.559,2.271,2.271,0,0,0,1.646.6,2.393,2.393,0,0,0,1.963-.86l1.48,1.014a4.561,4.561,0,0,1-6.489.4,3.889,3.889,0,0,1,.942-6.176,4.527,4.527,0,0,1,2.177-.523,4.413,4.413,0,0,1,2,.443A3.8,3.8,0,0,1,550.218,828.346Z" transform="translate(-517.075 -823.944)" fill="#fff"/>
    <path id="패스_2068" data-name="패스 2068" d="M595.088,811.327h1.878V817.3l2.765-3.085h2.358l-3.224,3.586,3.609,3.9h-2.331l-3.177-3.449V821.7h-1.878Z" transform="translate(-560.38 -811.327)" fill="#fff"/>
    <path id="패스_2069" data-name="패스 2069" d="M659.016,812.773h1.894l1.462,6.458,1.806-6.458h1.6l1.833,6.458,1.448-6.458h1.894l-2.279,10.117h-1.847l-1.864-6.541-1.829,6.541h-1.829Z" transform="translate(-613.053 -812.518)" fill="#fff"/>
    <path id="패스_2070" data-name="패스 2070" d="M737.305,826.833h1.878v7.483h-1.878v-.791a3.678,3.678,0,0,1-1.1.753,3.087,3.087,0,0,1-1.2.23,3.331,3.331,0,0,1-2.508-1.124,3.924,3.924,0,0,1-1.058-2.8,4.019,4.019,0,0,1,1.023-2.84,3.261,3.261,0,0,1,2.487-1.107,3.161,3.161,0,0,1,1.264.254,3.448,3.448,0,0,1,1.092.763Zm-1.974,1.541a1.9,1.9,0,0,0-1.446.615,2.219,2.219,0,0,0-.576,1.578,2.242,2.242,0,0,0,.586,1.6,1.9,1.9,0,0,0,1.443.626,1.934,1.934,0,0,0,1.467-.616,2.25,2.25,0,0,0,.583-1.613,2.186,2.186,0,0,0-.583-1.582A1.958,1.958,0,0,0,735.332,828.373Z" transform="translate(-672.725 -823.944)" fill="#fff"/>
    <path id="패스_2071" data-name="패스 2071" d="M784.232,811.327h1.878V821.7h-1.878Z" transform="translate(-716.223 -811.327)" fill="#fff"/>
    <path id="패스_2072" data-name="패스 2072" d="M802.612,811.327h1.878V821.7h-1.878Z" transform="translate(-731.367 -811.327)" fill="#fff"/>
    <path id="패스_2073" data-name="패스 2073" d="M828.018,831.117h-6.031a2.007,2.007,0,0,0,.7,1.269,2.19,2.19,0,0,0,1.448.471,2.5,2.5,0,0,0,1.809-.736l1.582.743a3.732,3.732,0,0,1-1.417,1.241,4.429,4.429,0,0,1-1.96.4,3.873,3.873,0,0,1-2.868-1.111,3.779,3.779,0,0,1-1.107-2.782,3.908,3.908,0,0,1,1.1-2.844,3.707,3.707,0,0,1,2.768-1.131,3.845,3.845,0,0,1,2.875,1.131,4.089,4.089,0,0,1,1.107,2.988Zm-1.878-1.479a1.883,1.883,0,0,0-.734-1.018,2.126,2.126,0,0,0-1.271-.392,2.248,2.248,0,0,0-1.378.44,2.453,2.453,0,0,0-.689.97Z" transform="translate(-745.834 -823.944)" fill="#fff"/>
    <path id="패스_2074" data-name="패스 2074" d="M869.358,812.069h1.878v2.758h1.114v1.616h-1.114v5.867h-1.878v-5.867H868.4v-1.616h.963Z" transform="translate(-785.568 -811.938)" fill="#fff"/>
  </g>
</svg>
