<svg xmlns="http://www.w3.org/2000/svg" width="30" height="30.003" viewBox="0 0 30 30.003">
  <g id="토큰_1" data-name="토큰 1" transform="translate(-42 -357)">
    <g id="비트코인_아이콘" data-name="비트코인 아이콘" transform="translate(-225.689 91.359)">
      <path id="패스_2095" data-name="패스 2095" d="M297.24,284.272a15,15,0,1,1-10.924-18.181A15,15,0,0,1,297.24,284.272Z" transform="translate(0)" fill="#f7931a"/>
      <path id="패스_2096" data-name="패스 2096" d="M296.115,283.97c.269-1.876-1.1-2.885-2.963-3.558l.605-2.541-1.478-.386-.59,2.474c-.389-.1-.788-.2-1.183-.292l.593-2.491-1.477-.386-.605,2.541c-.322-.077-.638-.152-.944-.232l0-.008-2.038-.533-.394,1.652s1.1.263,1.074.279a.819.819,0,0,1,.689.9l-.69,2.9a1.256,1.256,0,0,1,.154.052l-.156-.041-.967,4.056a.536.536,0,0,1-.677.367c.014.022-1.075-.281-1.075-.281l-.734,1.772,1.924.5c.358.094.709.192,1.054.284l-.612,2.571,1.476.385.605-2.544c.4.115.795.22,1.178.32l-.6,2.531,1.478.385.612-2.565c2.521.5,4.416.3,5.214-2.088a2.761,2.761,0,0,0-1.358-3.752A2.43,2.43,0,0,0,296.115,283.97Zm-3.377,4.956c-.456,1.921-3.547.883-4.549.622l.812-3.406C290,286.4,293.216,286.923,292.738,288.926Zm.457-4.984c-.417,1.747-2.989.86-3.824.642l.736-3.089C290.942,281.713,293.63,282.12,293.2,283.942Z" transform="translate(-7.59 -5.381)" fill="#fff"/>
    </g>
  </g>
</svg>
