<svg xmlns="http://www.w3.org/2000/svg" xmlns:xlink="http://www.w3.org/1999/xlink" width="30" height="26.347" viewBox="0 0 30 26.347">
  <defs>
    <linearGradient id="linear-gradient" x1="0.25" y1="0.993" x2="0.75" y2="0.007" gradientUnits="objectBoundingBox">
      <stop offset="0" stop-color="#ffdc00"/>
      <stop offset="0.33" stop-color="#e58e2f"/>
      <stop offset="0.67" stop-color="#db2d72"/>
      <stop offset="1" stop-color="#f0f"/>
    </linearGradient>
  </defs>
  <g id="헥스" transform="translate(0)">
    <g id="logo" transform="translate(0 0)">
      <path id="패스_5027" data-name="패스 5027" d="M7.051,25.743,5.02,22.224a.468.468,0,0,1,0-.412l2.255-3.906a.464.464,0,0,1,.36-.208h4.51a.466.466,0,0,1,.361.208l2.255,3.906a.471.471,0,0,1,0,.417l-2.255,3.906a.472.472,0,0,1-.354.207H8.1a1.367,1.367,0,0,1-1.046-.6ZM21.7,17.705,17.2,9.926a.639.639,0,0,0-.493-.284H7.726a.639.639,0,0,0-.493.284L2.74,17.709a.636.636,0,0,0,0,.569l1.317,2.283,2.3-3.988a.728.728,0,0,1,.57-.33h5.92a.728.728,0,0,1,.57.33L16.382,21.7a.73.73,0,0,1,0,.658l-2.3,3.988h2.632a.637.637,0,0,0,.493-.285L21.7,18.28a.636.636,0,0,0,0-.574Zm8.153-5.148L22.959.614A1.362,1.362,0,0,0,21.9,0H8.1A1.362,1.362,0,0,0,7.041.614L.147,12.557a1.361,1.361,0,0,0,0,1.227l1.58,2.737L6.309,8.584a.9.9,0,0,1,.7-.406H17.418a.9.9,0,0,1,.7.406l5.2,9.012a.9.9,0,0,1,0,.812l-4.581,7.934H21.9a1.362,1.362,0,0,0,1.063-.614l6.895-11.943a1.361,1.361,0,0,0,0-1.227Z" transform="translate(0 0)" fill="url(#linear-gradient)"/>
    </g>
  </g>
</svg>
