<svg xmlns="http://www.w3.org/2000/svg" width="28.512" height="30" viewBox="0 0 28.512 30">
  <g id="tron" transform="translate(-1.55 0.001)">
    <path id="패스_5051" data-name="패스 5051" d="M29.675,9.037c-1.406-1.3-3.352-3.281-4.936-4.687l-.094-.066a1.791,1.791,0,0,0-.52-.291h0C20.3,3.281,2.525-.043,2.178,0a.656.656,0,0,0-.272.1l-.089.07a1.045,1.045,0,0,0-.244.394L1.55.628v.384c2,5.573,9.9,23.831,11.461,28.115.094.291.272.844.6.872h.075c.178,0,.937-1,.937-1S28.2,12.534,29.576,10.781a4.434,4.434,0,0,0,.469-.694A1.13,1.13,0,0,0,29.675,9.037ZM18.111,10.954l5.794-4.8,3.4,3.131Zm-2.25-.314L5.886,2.465,22.025,5.442Zm.9,2.142L26.97,11.137,15.3,25.2Zm-12.23-9.5,10.5,8.906L13.508,25.209Z" fill="#ff060a"/>
  </g>
</svg>
