<svg xmlns="http://www.w3.org/2000/svg" width="26.047" height="30" viewBox="0 0 26.047 30">
  <g id="uniswap-uni-logo" transform="translate(0.004)">
    <path id="패스_5031" data-name="패스 5031" d="M64.466,43.592c-.325-.046-.34-.062-.186-.077a5.1,5.1,0,0,1,1.454.124,6.253,6.253,0,0,1,3.187,2.135l.278.325.4-.062a8.627,8.627,0,0,1,4.951.619,6.413,6.413,0,0,1,1.114.65,1.5,1.5,0,0,1,.108.433,2.624,2.624,0,0,1-.17,1.686.453.453,0,0,0-.046.5.466.466,0,0,0,.418.263c.371,0,.758-.588.944-1.408L77,48.45l.139.155a6.093,6.093,0,0,1,1.5,2.971l.031.232-.139-.2a2.612,2.612,0,0,0-.743-.789,4.647,4.647,0,0,0-2.553-.542,10.46,10.46,0,0,1-2.831-.433c-1.269-.418-1.919-.959-3.419-2.955a14.222,14.222,0,0,0-1.5-1.764A5.248,5.248,0,0,0,64.466,43.592Z" transform="translate(-54.258 -36.769)" fill="#ff007a"/>
    <path id="패스_5032" data-name="패스 5032" d="M129.084,48.094a3.346,3.346,0,0,1,.278-1.331,1.067,1.067,0,0,1,.139-.263c.015,0-.015.108-.062.232a2.955,2.955,0,0,0-.062,1.362c.108.7.155.789.9,1.547.34.356.743.8.9.99l.263.34-.263-.248a9.417,9.417,0,0,0-1.238-.975c-.108-.062-.124-.062-.2.015-.062.062-.077.155-.077.6a3.315,3.315,0,0,1-.34,1.578c-.124.232-.139.186-.031-.077a2.255,2.255,0,0,0,.093-.959c0-1.346-.155-1.671-1.1-2.212-.232-.139-.634-.34-.866-.449a3.426,3.426,0,0,1-.418-.2,6.913,6.913,0,0,1,1.3.387c.542.217.634.232.7.217C129.037,48.6,129.068,48.48,129.084,48.094Z" transform="translate(-107.35 -39.306)" fill="#ff007a"/>
    <path id="패스_5033" data-name="패스 5033" d="M64.7,51.751a5.467,5.467,0,0,1-.975-3.326l.031-.325.155.031a3.631,3.631,0,0,1,.99.371c.619.371.9.882,1.16,2.151.077.371.186.8.232.944a5.586,5.586,0,0,0,.619,1.114c.17.248.062.371-.325.34A3.17,3.17,0,0,1,64.7,51.751Z" transform="translate(-53.862 -40.658)" fill="#ff007a"/>
    <path id="패스_5034" data-name="패스 5034" d="M112.746,90.1c-3.063-1.238-4.146-2.305-4.146-4.116,0-.263.015-.48.015-.48a2.907,2.907,0,0,1,.263.2c.619.5,1.315.712,3.249.99a13.476,13.476,0,0,1,2.367.5,4.52,4.52,0,0,1,3.311,3.6,6.258,6.258,0,0,1-.093,1.934,3.878,3.878,0,0,1-.5,1.114c-.015,0-.046-.077-.046-.2a2.518,2.518,0,0,0-.9-1.748A12.364,12.364,0,0,0,112.746,90.1Z" transform="translate(-91.801 -72.272)" fill="#ff007a"/>
    <path id="패스_5035" data-name="패스 5035" d="M85.468,113.682a3.665,3.665,0,0,0-.155-.65l-.077-.232.139.17a2.724,2.724,0,0,1,.5.9,1.931,1.931,0,0,1,.108.866,1.974,1.974,0,0,1-.108.835,2.8,2.8,0,0,1-.65,1.037,3.724,3.724,0,0,1-2.321,1.021c-.186.015-.712.062-1.176.093a9.075,9.075,0,0,0-2.63.433c-.093.031-.186.062-.2.046a3.5,3.5,0,0,1,.835-.5,8.42,8.42,0,0,1,2.321-.619,10.6,10.6,0,0,0,1.377-.278A2.675,2.675,0,0,0,85.468,113.682Z" transform="translate(-66.689 -95.348)" fill="#ff007a"/>
    <path id="패스_5036" data-name="패스 5036" d="M128.357,120.061a3.611,3.611,0,0,1-.279-2.506c.031-.077.062-.155.093-.155a.665.665,0,0,1,.217.108c.186.124.572.34,1.563.882a7.9,7.9,0,0,1,2.46,1.81,3.827,3.827,0,0,1,.82,1.872,6.137,6.137,0,0,1-.077,1.841,4.561,4.561,0,0,1-2.243,2.971,2.151,2.151,0,0,1-.325.155,1.23,1.23,0,0,1,.139-.34,3.071,3.071,0,0,0,.139-2.4,9.852,9.852,0,0,0-1.238-2.228A14.7,14.7,0,0,1,128.357,120.061Z" transform="translate(-108.17 -99.236)" fill="#ff007a"/>
    <path id="패스_5037" data-name="패스 5037" d="M54.225,154.767a8.411,8.411,0,0,1,3.853-1.857,5.733,5.733,0,0,1,2,.077,3.445,3.445,0,0,1,1.949,1.253,4.62,4.62,0,0,1,.712,2.1c.062.418.139.851.155.944a2.077,2.077,0,0,0,.681,1.222,2.355,2.355,0,0,0,2.135.062,1.04,1.04,0,0,1,.263-.077,2.371,2.371,0,0,1-.665.449,2.191,2.191,0,0,1-1.114.263,2.234,2.234,0,0,1-1.888-1.16,8.7,8.7,0,0,1-.511-1.021,3.721,3.721,0,0,0-1.454-2.042,1.906,1.906,0,0,0-1.81-.17,1.165,1.165,0,0,0-.4,1.81,1.582,1.582,0,0,0,.882.464.944.944,0,0,0,1.068-.944.741.741,0,0,0-.511-.758c-.5-.217-1.037.031-1.021.511a.425.425,0,0,0,.294.418c.124.062.124.062.031.046a.574.574,0,0,1-.2-1.006,1.113,1.113,0,0,1,1.655.356,1.621,1.621,0,0,1,.031,1.052,1.447,1.447,0,0,1-1.764.835,2.523,2.523,0,0,1-1.346-.913,4.111,4.111,0,0,0-3.048-1.563l-.294-.046Z" transform="translate(-45.564 -129.207)" fill="#ff007a"/>
    <path id="패스_5038" data-name="패스 5038" d="M.522.665c3.6,4.379,9.159,11.186,9.438,11.558.232.309.139.6-.248.82a2.367,2.367,0,0,1-.882.248,1.116,1.116,0,0,1-.743-.325c-.139-.139-.743-1.021-2.1-3.141C4.947,8.2,4.065,6.854,4.05,6.839c-.062-.031-.062-.031,1.826,3.342a27.082,27.082,0,0,1,1.578,2.971c0,.2-.062.309-.309.588A3.443,3.443,0,0,0,6.4,15.828a6.473,6.473,0,0,1-1.764,3.559,6.367,6.367,0,0,0-.975,1.377A2.617,2.617,0,0,0,3.354,22a3.871,3.871,0,0,0,.2,1.516A5.168,5.168,0,0,0,4.3,24.972,3.6,3.6,0,0,1,4.87,26.1c0,.124.031.124.588,0A6.12,6.12,0,0,0,8.49,24.616a1.4,1.4,0,0,0,.464-1.176,1.262,1.262,0,0,0-.108-.65,2.777,2.777,0,0,0-1.083-1.052,2.445,2.445,0,0,1-1.284-1.655,2.912,2.912,0,0,1,.48-1.857,5.55,5.55,0,0,0,.681-2.445c.046-.65.124-.913.309-1.114a1.154,1.154,0,0,1,.851-.356,2.836,2.836,0,0,0,1.7-.7,1.454,1.454,0,0,0,.526-1.129l.015-.356-.2-.217C10.115,11.078.043,0,0,0-.019,0,.228.294.522.665Zm4.75,22a.639.639,0,0,0-.2-.851c-.263-.17-.665-.093-.665.139a.158.158,0,0,0,.124.155c.139.077.155.155.046.325s-.108.325.031.433A.443.443,0,0,0,5.272,22.666Z" fill="#ff007a"/>
    <path id="패스_5039" data-name="패스 5039" d="M69.863,93.693a1.373,1.373,0,0,0-.835.913,1.333,1.333,0,0,0,.077.835c.17.217.325.279.758.279.851,0,1.578-.371,1.655-.82a1.2,1.2,0,0,0-.7-1.114A1.573,1.573,0,0,0,69.863,93.693Zm.99.774a.348.348,0,0,0-.155-.526c-.418-.263-1.052-.046-1.052.356,0,.2.325.418.634.418A.855.855,0,0,0,70.853,94.467Z" transform="translate(-58.325 -79.165)" fill="#ff007a"/>
  </g>
</svg>
