<svg xmlns="http://www.w3.org/2000/svg" width="30" height="26.098" viewBox="0 0 30 26.098">
  <g id="tether-usdt-logo" transform="translate(-0.005 0)">
    <path id="패스_5015" data-name="패스 5015" d="M5.5.128.028,11.618a.223.223,0,0,0,.048.26L14.849,26.035a.225.225,0,0,0,.312,0L29.935,11.879a.223.223,0,0,0,.048-.26L24.513.129a.221.221,0,0,0-.2-.129H5.7a.221.221,0,0,0-.2.128h0Z" transform="translate(0)" fill="#50af95"/>
    <path id="패스_5016" data-name="패스 5016" d="M75.342,49.473h0c-.106.008-.654.041-1.876.041-.972,0-1.663-.029-1.9-.041h0C67.8,49.307,65,48.653,65,47.87s2.8-1.436,6.562-1.6v2.555c.246.018.949.059,1.922.059,1.167,0,1.751-.049,1.856-.058V46.268c3.749.167,6.548.821,6.548,1.6s-2.8,1.435-6.548,1.6h0Zm0-3.469V43.717h5.232V40.23H66.328v3.487H71.56V46c-4.252.2-7.45,1.038-7.45,2.047s3.2,1.851,7.45,2.047v7.327h3.781v-7.33c4.243-.2,7.435-1.037,7.435-2.045S79.586,46.2,75.341,46h0Zm0,0Z" transform="translate(-58.439 -36.674)" fill="#fff"/>
  </g>
</svg>
