<svg xmlns="http://www.w3.org/2000/svg" xmlns:xlink="http://www.w3.org/1999/xlink" width="28" height="26.431" viewBox="0 0 28 26.431">
  <defs>
    <linearGradient id="linear-gradient" y1="-0.175" x2="1" y2="-0.175" gradientUnits="objectBoundingBox">
      <stop offset="0" stop-color="#9d4abe"/>
      <stop offset="0.03" stop-color="#9055c4"/>
      <stop offset="0.15" stop-color="#6b74d6"/>
      <stop offset="0.26" stop-color="#4c8fe5"/>
      <stop offset="0.39" stop-color="#34a3f0"/>
      <stop offset="0.52" stop-color="#22b2f9"/>
      <stop offset="0.66" stop-color="#18bafd"/>
      <stop offset="0.83" stop-color="#15bdff"/>
      <stop offset="1" stop-color="#28bad5"/>
    </linearGradient>
  </defs>
  <g id="비체인" transform="translate(-0.003)">
    <g id="Layer_1" data-name="Layer 1" transform="translate(0.003)">
      <path id="패스_5045" data-name="패스 5045" d="M12.04,25.242.064.85A.591.591,0,0,1,.593,0h4.15a.6.6,0,0,1,.529.321l8.746,17.7a2.123,2.123,0,0,0,3.815,0L26.55.335a.6.6,0,0,1,.529-.321h.515A.4.4,0,0,1,27.957.6l-12.1,24.642a2.125,2.125,0,0,1-3.816,0Z" transform="translate(-0.003)" fill="url(#linear-gradient)"/>
      <path id="패스_5046" data-name="패스 5046" d="M12.334,26.228,5.567,1.321A.576.576,0,0,0,5.065,1H.9a.593.593,0,0,0-.543.85Z" transform="translate(-0.297 -0.986)" fill="#fff" opacity="0.1" style="mix-blend-mode: normal;isolation: isolate"/>
      <path id="패스_5047" data-name="패스 5047" d="M14.655,18.029.7.85A.6.6,0,0,1,1.175,0h4.22a.625.625,0,0,1,.5.321Z" transform="translate(-0.64)" fill="#fff" opacity="0.1" style="mix-blend-mode: normal;isolation: isolate"/>
    </g>
  </g>
</svg>
