<svg id="랩트" xmlns="http://www.w3.org/2000/svg" width="30" height="30" viewBox="0 0 30 30">
  <g id="Layer_1" data-name="Layer 1" transform="translate(0 0)">
    <g id="Page-1" transform="translate(0 0)">
      <g id="wbtc_colour" data-name="wbtc colour">
        <path id="Shape" d="M86.914,22.879l-.824.824a11.661,11.661,0,0,1,0,15.739l.824.824a12.839,12.839,0,0,0,0-17.405Z" transform="translate(-62.452 -16.583)" fill="#5a5564"/>
        <path id="Shape-2" data-name="Shape" d="M23.773,12.032a11.661,11.661,0,0,1,15.739,0l.824-.824a12.839,12.839,0,0,0-17.405,0Z" transform="translate(-16.634 -5.665)" fill="#5a5564"/>
        <path id="Shape-3" data-name="Shape" d="M12.032,39.544a11.661,11.661,0,0,1,0-15.73l-.824-.824a12.839,12.839,0,0,0,0,17.405Z" transform="translate(-5.665 -16.678)" fill="#5a5564"/>
        <path id="Shape-4" data-name="Shape" d="M39.522,86.05a11.661,11.661,0,0,1-15.739,0l-.824.824a12.839,12.839,0,0,0,17.405,0Z" transform="translate(-16.656 -62.423)" fill="#5a5564"/>
        <path id="Shape-5" data-name="Shape" d="M45.8,31.838c-.165-1.719-1.647-2.3-3.523-2.471V27h-1.45v2.323H39.669V27H38.231v2.383H35.29v1.551s1.071-.019,1.054,0a.75.75,0,0,1,.824.637V38.1a.508.508,0,0,1-.176.354.5.5,0,0,1-.373.126c.019.016-1.054,0-1.054,0l-.275,1.733H38.2V42.73h1.45V40.344h1.159v2.375h1.452V40.325c2.449-.148,4.157-.752,4.371-3.045a2.469,2.469,0,0,0-2.081-3A2.241,2.241,0,0,0,45.8,31.838Zm-2.032,5.157c0,1.8-3.086,1.6-4.069,1.6v-3.2C40.683,35.4,43.769,35.114,43.769,36.995Zm-.673-4.5c0,1.647-2.576,1.447-3.394,1.447v-2.9C40.521,31.033,43.1,30.775,43.1,32.491Z" transform="translate(-25.6 -19.586)" fill="#f09242"/>
        <path id="Shape-6" data-name="Shape" d="M15,30A15,15,0,1,1,30,15,15,15,0,0,1,15,30ZM15,1.17A13.822,13.822,0,1,0,24.78,5.216,13.822,13.822,0,0,0,15,1.17Z" transform="translate(0 0)" fill="#282138"/>
      </g>
    </g>
  </g>
</svg>
