<svg id="휴지통" xmlns="http://www.w3.org/2000/svg" width="20" height="20" viewBox="0 0 20 20">
  <g id="사각형_344" data-name="사각형 344" transform="translate(2 4)" fill="none" stroke="#212529" stroke-width="2">
    <path d="M0,0H16a0,0,0,0,1,0,0V12a4,4,0,0,1-4,4H4a4,4,0,0,1-4-4V0A0,0,0,0,1,0,0Z" stroke="none"/>
    <path d="M2,1H14a1,1,0,0,1,1,1V12a3,3,0,0,1-3,3H4a3,3,0,0,1-3-3V2A1,1,0,0,1,2,1Z" fill="none"/>
  </g>
  <g id="사각형_345" data-name="사각형 345" transform="translate(5.5)" fill="none" stroke="#212529" stroke-width="2">
    <path d="M2,0H7A2,2,0,0,1,9,2V6A0,0,0,0,1,9,6H0A0,0,0,0,1,0,6V2A2,2,0,0,1,2,0Z" stroke="none"/>
    <rect x="1" y="1" width="7" height="4" rx="1" fill="none"/>
  </g>
  <line id="선_160" data-name="선 160" x2="20" transform="translate(0 5)" fill="none" stroke="#212529" stroke-width="2"/>
  <g id="그룹_3388" data-name="그룹 3388" transform="translate(8 8.5)">
    <line id="선_161" data-name="선 161" y2="7" transform="translate(0 0)" fill="none" stroke="#212529" stroke-width="2"/>
    <line id="선_162" data-name="선 162" y2="7" transform="translate(4 0)" fill="none" stroke="#212529" stroke-width="2"/>
  </g>
</svg>
